# xmcd CD database file
#
# Track frame offsets:
#	150
#	16508
#	30944
#	45086
#	63113
#	81227
#	94819
#	117527
#	134621
#	149128
#	170139
#	186039
#	216173
#
# Disc length: 3533 seconds
#
# Revision: 3
# Processed by: cddbd v1.5.2PL0 Copyright (c) Steve Scherf et al.
# Submitted via: CDex 1.79
#
DISCID=b00dcb0d
DTITLE=Trent Willmon - Broken In
DYEAR=2008
DGENRE=Country
TTITLE0=Broken In
TTITLE1=Dry County
TTITLE2=Doesn`t Mean I Don`t Love You
TTITLE3=Cold Beer And A Fishin` Pole
TTITLE4=The Way I Remember It
TTITLE5=The Good Ol` Days Are Gone (featuring Kevin Fowler and Roger Creager)
TTITLE6=How A Cowboy Lives
TTITLE7=The Truth
TTITLE8=Little Set Of Horns
TTITLE9=Tumbleweed Town
TTITLE10=I`ll Love You Anyway
TTITLE11=There Is A God
TTITLE12=There Is A God Video
EXTD=YEAR: 2008
EXTT0=
EXTT1=
EXTT2=
EXTT3=
EXTT4=
EXTT5=
EXTT6=
EXTT7=
EXTT8=
EXTT9=
EXTT10=
EXTT11=
EXTT12=
PLAYORDER=
